# unr2obj export of DTCredits
# faces: 14  materials: 1
# coordinates: right-handed Z-up, meters (1 UU = 19.05 mm)
mtllib DTCredits.mtl
o DTCredits
v -195.072000 4.876800 4.876800
v 195.072000 4.876800 4.876800
v 195.072000 -4.876800 4.876800
v -195.072000 -4.876800 4.876800
v 585.216000 4.876800 4.876800
v 585.216000 -4.876800 4.876800
v -585.216000 4.876800 4.876800
v -585.216000 -4.876800 4.876800
v -195.072000 -4.876800 -4.876800
v 195.072000 -4.876800 -4.876800
v 195.072000 4.876800 -4.876800
v -195.072000 4.876800 -4.876800
v 585.216000 -4.876800 -4.876800
v 585.216000 4.876800 -4.876800
v -585.216000 -4.876800 -4.876800
v -585.216000 4.876800 -4.876800
vt 0.000000 1.000000
vt 0.000000 2561.000000
vt 64.000000 2561.000000
vt 64.000000 1.000000
vt 0.000000 65.000000
vt 2560.000000 65.000000
vt 2560.000000 1.000000
vt 64.000000 65.000000
vn -0.000000 0.000000 -1.000000
vn -0.000000 0.000000 1.000000
vn -0.000000 1.000000 -0.000000
vn 0.000000 -1.000000 0.000000
vn 1.000000 -0.000000 0.000000
vn -1.000000 -0.000000 0.000000
g credits_Base_blackground
usemtl credits_Base_blackground
f 1/1/1 2/2/1 3/3/1 4/4/1
f 2/1/1 5/2/1 6/3/1 3/4/1
f 7/1/1 1/2/1 4/3/1 8/4/1
f 9/1/2 10/2/2 11/3/2 12/4/2
f 10/1/2 13/2/2 14/3/2 11/4/2
f 15/1/2 9/2/2 12/3/2 16/4/2
f 9/1/3 4/5/3 3/6/3 10/7/3
f 10/1/3 3/5/3 6/6/3 13/7/3
f 15/1/3 8/5/3 4/6/3 9/7/3
f 11/1/4 2/5/4 1/6/4 12/7/4
f 14/1/4 5/5/4 2/6/4 11/7/4
f 12/1/4 1/5/4 7/6/4 16/7/4
f 16/1/5 7/5/5 8/8/5 15/4/5
f 13/1/6 6/5/6 5/8/6 14/4/6
