# unr2obj export of Foyer
# faces: 12  materials: 4
# coordinates: right-handed Z-up, meters (1 UU = 19.05 mm)
mtllib Foyer.mtl
o Foyer
v 21.945600 2.438400 -2.438400
v 21.945600 2.438400 2.438400
v 21.945600 7.315200 2.438400
v 21.945600 7.315200 -2.438400
v 21.945600 -2.438400 -2.438400
v 21.945600 -2.438400 2.438400
v 21.945600 -7.277100 -2.438400
v 21.945600 -7.277100 2.438400
v 21.945600 -19.507200 2.438400
v 21.945600 -19.507200 11.277600
v 21.945600 19.507200 11.277600
v 21.945600 19.507200 2.438400
v 21.945600 -19.507200 -3.352800
v 21.945600 -19.507200 -2.438400
v 21.945600 19.507200 -2.438400
v 21.945600 19.507200 -3.352800
v 2.438400 19.507200 11.277600
v 2.438400 -19.507200 11.277600
v 2.438400 -19.507200 -3.352800
v 14.630400 -19.507200 -3.352800
v 15.849600 -19.507200 -3.352800
v 15.849600 19.507200 -3.352800
v 14.630400 19.507200 -3.352800
v 2.438400 19.507200 -3.352800
vt 1.000000 1.000000
vt 1.000000 2.000000
vt 0.000000 2.000000
vt 0.000000 1.000000
vt 0.992188 1.000000
vt 0.992188 2.000000
vt 0.000000 26.333334
vt 0.000000 65.000002
vt 128.000000 65.000002
vt 128.000000 26.333334
vt 88.000000 26.333334
vt 72.000000 26.333334
vt 56.000000 26.333334
vt 40.125000 26.333334
vt 0.000000 5.000000
vt 40.125000 5.000000
vt 56.000000 5.000000
vt 72.000000 5.000000
vt 88.000000 5.000000
vt 128.000000 5.000000
vt 128.000000 1.000000
vt 16.000000 65.000000
vt 144.000000 65.000000
vt 144.000000 -63.000000
vt 16.000000 -63.000000
vt 0.000000 81.000000
vt 0.000000 89.000000
vt 0.000000 129.000000
vt 128.000000 129.000000
vt 128.000000 89.000000
vt 128.000000 81.000000
vt 88.000000 1.000000
vt 80.000000 1.000000
vt 48.000000 1.000000
vt 40.000000 1.000000
vn -1.000000 0.000000 -0.000000
vn -0.000000 0.000000 -1.000000
vn -0.000000 0.000000 1.000000
vn -0.000000 1.000000 -0.000000
vn -0.000000 -1.000000 -0.000000
vn 1.000000 -0.000000 0.000000
g Logo_UTLogo1
usemtl Logo_UTLogo1
f 1/1/1 2/2/1 3/3/1 4/4/1
g Logo_UTLogo2
usemtl Logo_UTLogo2
f 5/1/1 6/2/1 2/3/1 1/4/1
g Logo_UTLogo3
usemtl Logo_UTLogo3
f 7/5/1 8/6/1 6/3/1 5/4/1
g credits_Base_blackground
usemtl credits_Base_blackground
f 9/7/1 10/8/1 11/9/1 12/10/1 3/11/1 2/12/1 6/13/1 8/14/1
f 13/4/1 14/15/1 7/16/1 5/17/1 1/18/1 4/19/1 15/20/1 16/21/1
f 3/11/1 12/10/1 15/20/1 4/19/1
f 14/15/1 9/7/1 8/14/1 7/16/1
f 17/22/2 11/23/2 10/24/2 18/25/2
f 19/4/3 20/26/3 21/27/3 13/28/3 16/29/3 22/30/3 23/31/3 24/21/3
f 19/4/4 18/8/4 10/9/4 9/10/4 14/20/4 13/21/4 21/32/4 20/33/4
f 16/4/5 15/15/5 12/7/5 11/8/5 17/9/5 24/21/5 23/34/5 22/35/5
f 24/4/6 17/8/6 18/9/6 19/21/6
