# UT99 Map Export
# Polygons: 8
mtllib DTCredits.mtl

v -10240.000000 256.000000 256.000000
vt 256.000000 -10240.000000 0.000000
vt 0.000000 0.000000 0.000000
vn -0.000000 -0.000000 -1.000000
v 10240.000000 256.000000 256.000000
vt 256.000000 10240.000000 0.000000
v 10240.000000 -256.000000 256.000000
vt -256.000000 10240.000000 0.000000
v -10240.000000 -256.000000 256.000000
vt -256.000000 -10240.000000 0.000000
vt 255.000000 10240.000000 0.000000
v 30720.000000 256.000000 256.000000
vt 255.000000 30720.000000 0.000000
v 30720.000000 -256.000000 256.000000
vt -257.000000 30720.000000 0.000000
vt -257.000000 10240.000000 0.000000
v -10240.000000 -256.000000 -256.000000
vt 256.000000 -10239.000000 0.000000
vn -0.000000 -0.000000 1.000000
v 10240.000000 -256.000000 -256.000000
vt 256.000000 10241.000000 0.000000
v 10240.000000 256.000000 -256.000000
vt -256.000000 10241.000000 0.000000
v -10240.000000 256.000000 -256.000000
vt -256.000000 -10239.000000 0.000000
vt 256.000000 10239.000000 0.000000
v 30720.000000 -256.000000 -256.000000
vt 256.000000 30719.000000 0.000000
v 30720.000000 256.000000 -256.000000
vt -256.000000 30719.000000 0.000000
vt -256.000000 10239.000000 0.000000
vt 10241.000000 -256.000000 0.000000
vn -0.000000 -1.000000 -0.000000
vt 10241.000000 256.000000 0.000000
vt -10239.000000 256.000000 0.000000
vt -10239.000000 -256.000000 0.000000
vt 30719.000000 -256.000000 0.000000
vt 30719.000000 256.000000 0.000000
vt 10239.000000 256.000000 0.000000
vt 10239.000000 -256.000000 0.000000
vt 10240.000000 -256.000000 0.000000
vn 0.000000 1.000000 0.000000
vt 10240.000000 256.000000 0.000000
vt -10240.000000 256.000000 0.000000
vt -10240.000000 -256.000000 0.000000
v -30720.000000 -256.000000 -256.000000
vt 30720.000000 -257.000000 0.000000
v -30720.000000 -256.000000 256.000000
vt 30720.000000 255.000000 0.000000
vt 10240.000000 255.000000 0.000000
vt 10240.000000 -257.000000 0.000000

usemtl Engine_Texture
f 1/1/1 2/2/1 3/3/1 4/4/1
f 2/5/1 5/6/1 6/7/1 3/8/1
f 7/9/2 8/10/2 9/11/2 10/12/2
f 8/13/2 11/14/2 12/15/2 9/16/2
f 9/17/3 2/18/3 1/19/3 10/20/3
f 12/21/3 5/22/3 2/23/3 9/24/3
f 7/25/4 4/26/4 3/27/4 8/28/4
f 13/29/4 14/30/4 4/31/4 7/32/4

