<svg xmlns="http://www.w3.org/2000/svg" viewBox="0 0 256 256" width="256" height="256">
  <!-- Mono-bone skull glyph derived from frag-arena-logo.svg (skull paths only).
       Used as the HUD health icon and death-screen mark, loaded via <img>. The
       fill is hardcoded bone (#ECE6D2), NOT currentColor: an <img>-loaded SVG is
       isolated from the page, so currentColor/CSS vars don't resolve and the skull
       rendered black-on-dark (invisible). Inline the SVG if runtime recolor is needed. -->
  <g stroke="#1b1512" stroke-width="4" stroke-linejoin="round">
    <path fill="#ECE6D2" d="M128,46
      C166,46 194,74 194,112
      C194,134 184,150 168,157
      C165,168 161,177 154,183
      C148,190 138,193 128,193
      C118,193 108,190 102,183
      C95,177 91,168 88,157
      C72,150 62,134 62,112
      C62,74 90,46 128,46 Z"/>
  </g>
  <g fill="#1b1512">
    <ellipse cx="104" cy="112" rx="18" ry="15" transform="rotate(20 104 112)"/>
    <ellipse cx="152" cy="112" rx="18" ry="15" transform="rotate(-20 152 112)"/>
    <path d="M120,132 L136,132 L128,152 Z"/>
    <rect x="114" y="171" width="4" height="20" rx="2"/>
    <rect x="126" y="171" width="4" height="21" rx="2"/>
    <rect x="138" y="171" width="4" height="20" rx="2"/>
  </g>
</svg>
