<svg xmlns="http://www.w3.org/2000/svg" fill="none" viewBox="0 0 268 27"><path fill="#FFFFFF" fill-rule="evenodd" d="M19.68 19.71a.83.83 0 0 0 .032-.898L9.388 1.343a.81.81 0 0 0-.712-.406H1.424a.828.828 0 0 0-.712 1.25L14.279 25.46a.823.823 0 0 0 1.393.053l4.008-5.802ZM7.144 25.095a.836.836 0 0 1-.712 1.261H1.456a.83.83 0 0 1-.83-.833v-8.42c0-.855 1.117-1.154 1.542-.428z" clip-rule="evenodd"></path><path fill="#FFFFFF" d="M39.117 25.33c.319.556-.075 1.25-.713 1.25h-7.209a.82.82 0 0 1-.712-.416L16.501 2.186c-.319-.555.075-1.25.713-1.25h7.24c.298 0 .564.16.713.417zm23.505.225h3.836V10.274l8.92 15.28h3.264l8.921-15.28v15.28H91.4V2.446h-3.77L77.025 20.673 66.39 2.445h-3.768zm37.707 0h14.848V21.79h-11.012v-5.912h11.012v-3.765h-11.012V6.21h11.012V2.445h-14.848zm29.532 0h3.835V6.21h8.892V2.445H120.94V6.21h8.921zm39.877 0-10.945-23.11h-3.738l-10.946 23.11h4.204l1.889-4.025h13.396l1.917 4.025zm-17.744-7.79 4.911-10.4 4.91 10.4h-9.831zm24.389 7.79h3.836v-7.26h4.949c4.717 0 8.117-3.332 8.117-7.925s-3.4-7.925-8.117-7.925h-8.785zm3.836-11.025V6.21h4.949c2.489 0 4.271 1.753 4.271 4.16s-1.782 4.16-4.271 4.16zm20.321 11.025h15.051V21.79h-11.216V2.445h-3.835zm21.793 0h14.848V21.79h-11.012v-5.912h11.012v-3.765h-11.012V6.21h11.012V2.445h-14.848zm20.854 0h4.95l7.07-8.55 7.032 8.55h4.95L257.658 14l9.531-11.555h-4.911l-7.071 8.55-7.07-8.55h-4.95L252.718 14z"></path></svg>